<?xml version="1.0" encoding="UTF-8" standalone="no"?><!DOCTYPE svg PUBLIC "-//W3C//DTD SVG 1.1//EN" "http://www.w3.org/Graphics/SVG/1.1/DTD/svg11.dtd"><svg width="100%" height="100%" viewBox="0 0 226 95" version="1.1" xmlns="http://www.w3.org/2000/svg" xmlns:xlink="http://www.w3.org/1999/xlink" xml:space="preserve" xmlns:serif="http://www.serif.com/" style="fill-rule:evenodd;clip-rule:evenodd;stroke-linejoin:round;stroke-miterlimit:2;"><path d="M6.292,76.883l0.112,0c0.113,0 0.337,0 0.45,-0.112l0.112,-0c1.685,-0.564 3.034,-1.918 3.483,-3.609l0.112,-0.113c0,-0.113 0,-0.225 0.113,-0.338l-0,-0.677l0.112,-0.112l-0,-34.282c-0,-4.398 3.603,-8.007 7.882,-8.007c4.391,0 7.994,3.609 7.994,8.007l0,15.675c0,3.045 2.472,5.413 5.393,5.413c2.922,-0 5.393,-2.368 5.393,-5.413l0,-15.675c0,-4.398 3.604,-8.007 7.995,-8.007c4.279,0 7.882,3.609 7.882,8.007l-0,33.843c-0,3.038 2.472,5.4 5.393,5.4c3.034,0 5.393,-2.362 5.393,-5.4l-0,-33.862c-0,-10.235 -8.427,-18.661 -18.668,-18.661c-5.292,-0 -10.017,2.135 -13.388,5.505c-3.37,-3.37 -8.095,-5.505 -13.387,-5.505c-3.153,-0 -6.306,0.786 -8.893,2.247c-1.011,-1.348 -2.584,-2.36 -4.382,-2.36c-3.034,0 -5.393,2.472 -5.393,5.393l0,48.358l0.112,0.113l0,0.338l0.113,0.113c0.449,1.691 1.797,3.045 3.483,3.609l0.224,-0c0.113,0.112 0.225,0.112 0.337,0.112l0.113,0l0.112,0.113l1.685,-0l0.113,-0.113Z" style="fill:#9a64c6;fill-rule:nonzero;"/><path d="M103.197,76.883c3.039,0 5.403,-2.359 5.403,-5.393c-0,-2.921 -2.364,-5.393 -5.403,-5.393l-7.429,0c-4.953,0 -9.118,-3.043 -10.919,-7.439l25.099,0c5.169,0 9.438,-4.269 9.438,-9.437l-0,-10.468c-0,-10.917 -8.876,-19.793 -19.904,-19.793l-6.303,-0c-11.028,-0 -19.904,8.876 -19.904,19.793l-0,15.636c-0,12.382 10.112,22.494 22.493,22.494l7.429,0Zm-19.136,-38.13c-0,-4.954 4.052,-9.12 9.118,-9.12l6.303,0c5.066,0 9.118,4.166 9.118,9.12l-0,9.119l-24.539,0l-0,-9.119Z" style="fill:#9a64c6;fill-rule:nonzero;"/><g><path d="M137.401,60.299c-1.697,0 -3.206,-0.943 -4.149,-2.263c-0.943,-1.32 -0.943,-3.206 -0,-4.903l17.728,-31.684c1.32,-2.263 4.149,-3.206 6.412,-1.886c2.263,1.32 3.206,4.149 1.886,6.412l-13.956,24.517l14.6,0l-4.982,9.807l-17.539,0Z" style="fill:#9a64c6;"/><path d="M159.856,50.492c1.74,0.027 3.22,0.962 4.15,2.264c0.942,1.32 0.942,3.206 0.377,4.903l-16.596,34.701c-0.566,1.132 -2.075,2.263 -3.772,2.263c-0.566,0 -1.32,0 -2.263,-0.377c-2.264,-1.32 -3.584,-4.149 -2.264,-6.412l13.202,-27.535l7.166,-9.807Z" style="fill:#9a64c6;"/><path d="M155.505,18.96c0,-0 3.5,9.431 1.558,9.451l-23.684,-0c-2.62,-0.028 -4.839,-2.021 -4.81,-4.641c0.028,-2.62 2.021,-4.838 4.64,-4.81l22.296,-0Z" style="fill:#9a64c6;fill-rule:nonzero;"/></g><g><path d="M176.81,60.299c-1.697,0 -3.206,-0.943 -4.149,-2.263c-0.943,-1.32 -0.943,-3.206 -0,-4.903l17.728,-31.684c1.32,-2.263 4.149,-3.206 6.412,-1.886c2.263,1.32 3.206,4.149 1.886,6.412l-13.956,24.517l14.6,0l-4.982,9.807l-17.539,0Z" style="fill:#9a64c6;"/><path d="M199.265,50.492c1.74,0.027 3.22,0.962 4.15,2.264c0.942,1.32 0.942,3.206 0.377,4.903l-16.596,34.701c-0.566,1.132 -2.075,2.263 -3.772,2.263c-0.566,0 -1.32,0 -2.263,-0.377c-2.264,-1.32 -3.584,-4.149 -2.264,-6.412l13.202,-27.535l7.166,-9.807Z" style="fill:#9a64c6;"/><path d="M194.914,18.96c0,-0 3.5,9.431 1.558,9.451l-23.684,-0c-2.62,-0.028 -4.839,-2.021 -4.81,-4.641c0.028,-2.62 2.021,-4.838 4.64,-4.81l22.296,-0Z" style="fill:#9a64c6;fill-rule:nonzero;"/></g><g><path d="M224.123,24.247c0,-2.925 -2.472,-5.287 -5.393,-5.287c-3.033,-0 -5.393,2.362 -5.393,5.287l0,47.588c0,2.925 2.36,5.4 5.393,5.4c2.921,-0 5.393,-2.475 5.393,-5.4l0,-47.588Z" style="fill:#9a64c6;"/><path d="M218.785,0c-3.596,0 -6.63,2.922 -6.63,6.518c-0,3.709 3.034,6.63 6.63,6.63c3.596,0 6.518,-2.921 6.518,-6.63c0,-3.596 -2.922,-6.518 -6.518,-6.518Z" style="fill:#9a64c6;"/></g></svg>