<?xml version="1.0" encoding="UTF-8" standalone="no"?>
<!DOCTYPE svg PUBLIC "-//W3C//DTD SVG 1.1//EN" "http://www.w3.org/Graphics/SVG/1.1/DTD/svg11.dtd">
<svg width="100%" height="100%" viewBox="0 0 301 127" version="1.1" xmlns="http://www.w3.org/2000/svg" xmlns:xlink="http://www.w3.org/1999/xlink" xml:space="preserve" xmlns:serif="http://www.serif.com/" style="fill-rule:evenodd;clip-rule:evenodd;stroke-linejoin:round;stroke-miterlimit:2;">
    <g transform="matrix(1,0,0,1,-283.835,-266.621)">
        <path d="M292.224,369.133L292.374,369.133C292.524,369.133 292.823,369.133 292.973,368.982L293.123,368.982C295.37,368.23 297.168,366.426 297.767,364.171L297.917,364.02C297.917,363.87 297.917,363.72 298.067,363.569L298.067,362.667L298.216,362.517L298.216,316.808C298.216,310.944 303.021,306.132 308.726,306.132C314.581,306.132 319.385,310.944 319.385,316.808L319.385,337.708C319.385,341.768 322.681,344.925 326.576,344.925C330.471,344.925 333.766,341.768 333.766,337.708L333.766,316.808C333.766,310.944 338.571,306.132 344.426,306.132C350.131,306.132 354.935,310.944 354.935,316.808L354.935,361.933C354.935,365.983 358.231,369.133 362.126,369.133C366.17,369.133 369.316,365.983 369.316,361.933L369.316,316.783C369.316,303.136 358.081,291.901 344.426,291.901C337.369,291.901 331.07,294.747 326.576,299.242C322.082,294.747 315.782,291.901 308.726,291.901C304.522,291.901 300.318,292.95 296.868,294.897C295.52,293.1 293.423,291.751 291.026,291.751C286.981,291.751 283.835,295.047 283.835,298.942L283.835,363.419L283.985,363.569L283.985,364.02L284.135,364.171C284.734,366.426 286.532,368.23 288.779,368.982L289.078,368.982C289.228,369.133 289.378,369.133 289.528,369.133L289.677,369.133L289.827,369.283L292.074,369.283L292.224,369.133Z" style="fill:rgb(65,39,123);fill-rule:nonzero;"/>
    </g>
    <g transform="matrix(1,0,0,1,-281.835,-266.621)">
        <path d="M419.431,369.132C423.483,369.132 426.635,365.987 426.635,361.942C426.635,358.047 423.483,354.751 419.431,354.751L409.525,354.751C402.922,354.751 397.368,350.694 394.967,344.832L428.433,344.832C435.324,344.832 441.016,339.14 441.016,332.249L441.016,318.292C441.016,303.736 429.182,291.901 414.478,291.901L406.073,291.901C391.37,291.901 379.535,303.736 379.535,318.292L379.535,339.14C379.535,355.65 393.018,369.132 409.525,369.132L419.431,369.132ZM393.916,318.292C393.916,311.687 399.319,306.132 406.073,306.132L414.478,306.132C421.232,306.132 426.635,311.687 426.635,318.292L426.635,330.451L393.916,330.451L393.916,318.292Z" style="fill:rgb(65,39,123);fill-rule:nonzero;"/>
    </g>
    <g transform="matrix(1,0,0,1,-350.666,-210.472)">
        <g transform="matrix(2.51457,0,0,2.51457,424.986,160.365)">
            <path d="M43.3,51.9C42.4,51.9 41.6,51.4 41.1,50.7C40.6,50 40.6,49 41.1,48.1L50.5,31.3C51.2,30.1 52.7,29.6 53.9,30.3C55.1,31 55.6,32.5 54.9,33.7L47.5,46.7L55.242,46.7L52.6,51.9L43.3,51.9Z" style="fill:rgb(65,39,123);"/>
        </g>
        <g transform="matrix(1,0,0,1,-8,-0.73818)">
            <path d="M571.808,278.533C574.127,278.569 576.1,279.815 577.34,281.551C578.597,283.311 578.597,285.825 577.843,288.089L555.714,334.357C554.96,335.865 552.948,337.374 550.685,337.374C549.931,337.374 548.925,337.374 547.668,336.871C544.65,335.111 542.89,331.339 544.65,328.322L562.252,291.609L571.808,278.533Z" style="fill:rgb(65,39,123);"/>
        </g>
        <g transform="matrix(-1.24344,-2.18561,2.18561,-1.24344,522.888,397.646)">
            <path d="M49.054,43.976C49.054,43.976 43.79,43.116 44.29,42.216L50.5,31.3C51.2,30.1 52.7,29.6 53.9,30.3C55.1,31 55.6,32.5 54.9,33.7L49.054,43.976Z" style="fill:rgb(65,39,123);fill-rule:nonzero;"/>
        </g>
    </g>
    <g transform="matrix(1,0,0,1,-346.12,-210.472)">
        <g transform="matrix(2.51457,0,0,2.51457,472.986,160.365)">
            <path d="M43.3,51.9C42.4,51.9 41.6,51.4 41.1,50.7C40.6,50 40.6,49 41.1,48.1L50.5,31.3C51.2,30.1 52.7,29.6 53.9,30.3C55.1,31 55.6,32.5 54.9,33.7L47.5,46.7L55.242,46.7L52.6,51.9L43.3,51.9Z" style="fill:rgb(65,39,123);"/>
        </g>
        <g transform="matrix(1,0,0,1,40,-0.73818)">
            <path d="M571.808,278.533C574.127,278.569 576.1,279.815 577.34,281.551C578.597,283.311 578.597,285.825 577.843,288.089L555.714,334.357C554.96,335.865 552.948,337.374 550.685,337.374C549.931,337.374 548.925,337.374 547.668,336.871C544.65,335.111 542.89,331.339 544.65,328.322L562.252,291.609L571.808,278.533Z" style="fill:rgb(65,39,123);"/>
        </g>
        <g transform="matrix(-1.24344,-2.18561,2.18561,-1.24344,570.888,397.646)">
            <path d="M49.054,43.976C49.054,43.976 43.79,43.116 44.29,42.216L50.5,31.3C51.2,30.1 52.7,29.6 53.9,30.3C55.1,31 55.6,32.5 54.9,33.7L49.054,43.976Z" style="fill:rgb(65,39,123);fill-rule:nonzero;"/>
        </g>
    </g>
    <g transform="matrix(1,0,0,1,-342.649,-210.352)">
        <g transform="matrix(1,0,0,1,332.576,-56.2512)">
            <path d="M308.904,298.932C308.904,295.032 305.608,291.882 301.713,291.882C297.668,291.882 294.522,295.032 294.522,298.932L294.522,362.382C294.522,366.282 297.668,369.582 301.713,369.582C305.608,369.582 308.904,366.282 308.904,362.382L308.904,298.932Z" style="fill:rgb(65,39,123);"/>
        </g>
        <g transform="matrix(1,0,0,1,332.649,-40.1497)">
            <path d="M301.713,250.501C296.918,250.501 292.872,254.397 292.872,259.192C292.872,264.137 296.918,268.032 301.713,268.032C306.508,268.032 310.404,264.137 310.404,259.192C310.404,254.397 306.508,250.501 301.713,250.501Z" style="fill:rgb(65,39,123);"/>
        </g>
    </g>
</svg>
