<?xml version="1.0" encoding="UTF-8" standalone="no"?>
<!DOCTYPE svg PUBLIC "-//W3C//DTD SVG 1.1//EN" "http://www.w3.org/Graphics/SVG/1.1/DTD/svg11.dtd">
<svg width="100%" height="100%" viewBox="0 0 353 353" version="1.1" xmlns="http://www.w3.org/2000/svg" xmlns:xlink="http://www.w3.org/1999/xlink" xml:space="preserve" xmlns:serif="http://www.serif.com/" style="fill-rule:evenodd;clip-rule:evenodd;stroke-linejoin:round;stroke-miterlimit:2;">
    <path d="M337.222,22.952C321.31,14.384 303.562,30.908 293.158,40.7C269.291,63.956 249.095,90.884 226.45,115.364C201.358,142.292 178.102,169.22 152.398,195.537C137.71,210.225 121.798,226.137 112.006,244.497C89.974,223.076 71.002,199.82 46.522,180.849C28.774,167.385 -0.602,157.593 0.01,190.029C1.234,232.258 38.566,277.546 66.106,306.309C77.734,318.549 93.034,331.401 110.782,332.013C132.202,333.237 154.234,307.533 167.086,293.457C189.731,268.977 208.091,241.436 228.898,216.345C255.826,183.297 283.366,150.86 309.682,117.2C326.206,96.392 378.226,44.983 337.222,22.952ZM26.937,187.581C26.325,187.581 25.713,187.581 24.489,188.192C22.041,187.581 20.205,186.968 17.757,185.744C19.593,184.52 22.653,185.132 26.937,187.581Z" style="fill:rgb(242,186,82);fill-rule:nonzero;"/>
</svg>
